<svg width="29" height="28" viewBox="0 0 29 28" fill="none" xmlns="http://www.w3.org/2000/svg">
<path d="M6.57402 4.07258H26.951L24.1786 13.7757H8.06684M25.5648 19.3204H8.93082L6.15849 1.30025H2M10.317 24.8651C10.317 25.6306 9.69637 26.2512 8.93082 26.2512C8.16527 26.2512 7.54466 25.6306 7.54466 24.8651C7.54466 24.0995 8.16527 23.4789 8.93082 23.4789C9.69637 23.4789 10.317 24.0995 10.317 24.8651ZM25.5648 24.8651C25.5648 25.6306 24.9442 26.2512 24.1786 26.2512C23.4131 26.2512 22.7925 25.6306 22.7925 24.8651C22.7925 24.0995 23.4131 23.4789 24.1786 23.4789C24.9442 23.4789 25.5648 24.0995 25.5648 24.8651Z" stroke="#747270" stroke-width="2.5" stroke-linecap="round" stroke-linejoin="round"/>
</svg>
