<?xml version="1.0" encoding="utf-8"?>
<!-- Generator: Adobe Illustrator 24.0.1, SVG Export Plug-In . SVG Version: 6.00 Build 0)  -->
<svg version="1.1" id="Layer_1" xmlns="http://www.w3.org/2000/svg" xmlns:xlink="http://www.w3.org/1999/xlink" x="0px" y="0px"
	 viewBox="0 0 49.5 34.9" style="enable-background:new 0 0 49.5 34.9;" xml:space="preserve">
<style type="text/css">
	.st0{fill:#FFFFFF;}
</style>
<path class="st0" d="M49.5,17.9v8.5c0,1.9-1.5,3.4-3.4,3.4H41l-5.1,5.1v-5.1h-3.4c-1.2,0-2.3-0.7-2.9-1.7H31c3.2,0,5.8-2.6,5.8-5.8
	v-7.8h9.2C48,14.6,49.5,16.1,49.5,17.9z M14.6,26.2l8.7,8.7v-8.7h5.8c3.2,0,5.8-2.6,5.8-5.8V5.8c0-3.2-2.6-5.8-5.8-5.8H5.8
	C2.6,0,0,2.6,0,5.8v14.6c0,3.2,2.6,5.8,5.8,5.8H14.6z M32.8,11.9c0,0.5-0.1,1-0.4,1.4c-0.2,0.4-0.6,0.7-1.1,0.9
	c-0.5,0.2-1,0.3-1.7,0.3h-1.5v3h-1.7V9.2h3.2c0.6,0,1.2,0.1,1.7,0.4c0.5,0.2,0.8,0.6,1.1,1C32.7,10.9,32.8,11.4,32.8,11.9z
	 M31.1,11.9c0-0.2,0-0.5-0.1-0.7c-0.1-0.2-0.2-0.4-0.4-0.5c-0.2-0.1-0.5-0.2-0.8-0.2h-1.5v2.7h1.5c0.3,0,0.6-0.1,0.8-0.2
	c0.2-0.1,0.4-0.3,0.4-0.5C31,12.4,31.1,12.2,31.1,11.9z M21.3,9.2h-1.7v8.3h1.2h0.6h3.6v-1.3h-3.6V9.2z M14.2,13.9h3.3v-1.3h-3.3v-2
	H18V9.2h-3.8h-0.6h-1.1v8.3h1.1h0.6H18v-1.3h-3.8V13.9z M8.7,12.6H5.4V9.2H3.7v8.3h1.7v-3.6h3.3v3.6h1.7V9.2H8.7V12.6z"/>
</svg>
