<?xml version="1.0" encoding="utf-8"?>
<!-- Generator: Adobe Illustrator 24.0.1, SVG Export Plug-In . SVG Version: 6.00 Build 0)  -->
<svg version="1.1" id="Layer_1" xmlns="http://www.w3.org/2000/svg" xmlns:xlink="http://www.w3.org/1999/xlink" x="0px" y="0px"
	 viewBox="0 0 28.3 28.3" style="enable-background:new 0 0 28.3 28.3;" xml:space="preserve">
<style type="text/css">
	.st0{fill:#FF8B04;}
</style>
<g>
	<path class="st0" d="M19.1,4c0.6,0,1,0.5,1,1v1h2.1c0.9,0,1.8,0.4,2.4,1.1l3,3.8c0.4,0.5,0.7,1.2,0.7,1.9v4.4
		c0,1.7-1.4,3.1-3.1,3.1h-1c0,2.2-1.8,4.1-4.1,4.1S16,22.5,16,20.3h-5.7c0,2.2-1.8,4.1-4.1,4.1s-4.1-1.8-4.1-4.1c-1.1,0-2-0.9-2-2
		v-2H18V5C18,4.5,18.5,4,19.1,4z M6.2,18.2c-1.1,0-2,0.9-2,2c0,1.1,0.9,2,2,2s2-0.9,2-2C8.3,19.2,7.4,18.2,6.2,18.2z M20.1,18.2
		c-1.1,0-2,0.9-2,2c0,1.1,0.9,2,2,2c1.1,0,2-0.9,2-2C22.1,19.2,21.2,18.2,20.1,18.2z"/>
	<path class="st0" d="M12.4,16.3c-0.9,0-1.7-0.6-1.9-1.5h-5c-0.2,0.8-1,1.5-1.9,1.5c-0.9,0-1.7-0.6-1.9-1.5c-0.4,0-0.6,0-0.8-0.1
		c-0.2-0.1-0.4-0.3-0.5-0.5c-0.1-0.3-0.1-0.5-0.1-1v-0.9c0-0.9,0-1.4,0.2-1.8c0.2-0.4,0.5-0.7,0.9-0.9c0.1-0.1,0.3-0.1,0.4-0.2
		l0.2-1.1c0.2-1.1,0.3-1.7,0.6-2.2c0.3-0.4,0.7-0.8,1.1-1c0.5-0.2,1.1-0.2,2.2-0.2h2.5c0.7,0,1.1,0,1.5,0.1c0.3,0.1,0.7,0.3,0.9,0.5
		c0.3,0.3,0.5,0.6,0.9,1.2l1.9,2.8c1.2,0.4,2.1,1.4,2.3,2.7c0,0.3,0,0.6,0,1.1c0,0.2,0,0.3,0,0.3c-0.1,0.5-0.5,1-1,1
		c-0.1,0-0.2,0-0.3,0h-0.1C14.1,15.7,13.3,16.3,12.4,16.3z M11.5,14.4c0,0.5,0.4,0.9,0.9,0.9c0.5,0,0.9-0.4,0.9-0.9
		c0-0.5-0.4-0.9-0.9-0.9C11.9,13.4,11.5,13.8,11.5,14.4z M2.7,14.4c0,0.5,0.4,0.9,0.9,0.9s0.9-0.4,0.9-0.9c0-0.5-0.4-0.9-0.9-0.9
		S2.7,13.8,2.7,14.4z"/>
</g>
</svg>
