<?xml version="1.0" encoding="utf-8"?>
<!-- Generator: Adobe Illustrator 24.0.1, SVG Export Plug-In . SVG Version: 6.00 Build 0)  -->
<svg version="1.1" id="Layer_1" xmlns="http://www.w3.org/2000/svg" xmlns:xlink="http://www.w3.org/1999/xlink" x="0px" y="0px"
	 viewBox="0 0 15 15" style="enable-background:new 0 0 15 15;" xml:space="preserve">
<path d="M7.5,0C3.3,0,0,3.3,0,7.5C0,11.7,3.3,15,7.5,15c4.2,0,7.5-3.3,7.5-7.5C15,3.3,11.7,0,7.5,0z M7.5,2.2c0.8,0,1.4,0.6,1.4,1.4
	S8.3,4.9,7.5,4.9c-0.8,0-1.4-0.6-1.4-1.4S6.8,2.2,7.5,2.2z M9.8,11.8c0,0.2-0.2,0.4-0.5,0.4H8c-0.2,0-1.4,0-1.4,0H5.7
	c-0.2,0-0.5-0.1-0.5-0.4v-0.9c0-0.2,0.2-0.5,0.5-0.5c0.2,0,0.5-0.1,0.5-0.4V8.1c0-0.2-0.2-0.5-0.5-0.5c-0.2,0-0.5-0.1-0.5-0.4V6.3
	c0-0.2,0.2-0.5,0.5-0.5h2.7c0.2,0,0.5,0.2,0.5,0.5v3.7c0,0.2,0.2,0.4,0.5,0.4c0.2,0,0.5,0.2,0.5,0.5V11.8z"/>
</svg>
