<?xml version="1.0" encoding="utf-8"?>
<!-- Generator: Adobe Illustrator 24.0.1, SVG Export Plug-In . SVG Version: 6.00 Build 0)  -->
<svg version="1.1" id="Layer_1" xmlns="http://www.w3.org/2000/svg" xmlns:xlink="http://www.w3.org/1999/xlink" x="0px" y="0px"
	 viewBox="0 0 340.2 22.3" style="enable-background:new 0 0 340.2 22.3;" xml:space="preserve">
<style type="text/css">
	.st0{fill:#747270;}
</style>
<path class="st0" d="M112.5,0l1.4,1.8l-3.7,20.5v0.1h6.7v-0.1l1.7-9.6v0.1h9.7l-1.7,9.6h7l3.3-19L133.7,0H112.5z M129.2,8.9h-9.9
	l0.9-5.3h9.9L129.2,8.9z M26.3,0L15.9,17.4L11.9,0H7.2H4H2.4l1.1,1.8L0,22.3h7.1L9.6,8.2l3.3,14.1h4.5l8.4-14.1l-2.5,14.1h6.6
	l4-22.3H26.3z M44,7.1l-2.1,1.4l-1-1.4h-5.8l1.2,1.8l-2.4,13.4h6.7l1.7-9.7l0.1-0.4l2.4-1.5h2.4l-0.4,2.1h6.7l0.4-2.4l-3.1-3.3H44z
	 M54.2,22.3H60l0.7-3.8h-5.8L54.2,22.3z M63.6,0l1.3,1.9l-0.3,1.8h6.5l-3.3,18.6h6.8l3.3-18.6H84L84.6,0H63.6z M86.9,0l1.4,1.8
	l-3.7,20.6h6.7l1.7-9.7h3.4l4.8,9.7h6.8l-4.8-9.7h4.9l1.6-9.4L106.5,0H86.9z M102,8.9h-8.5l0.9-5.3h8.5L102,8.9z M158.2,0l-2.9,16.3
	l-6-16.3h-9.5l1.3,1.9l-3.7,20.4h6.8L147,6.1l6,16.2h8L165,0H158.2z M293.3,0h-21l1.3,1.9l-0.3,1.8h6.6l-3.4,18.6h6.8l3.3-18.6h6.1
	L293.3,0z M248,0l1.3,1.8l-3.7,20.6h6.7l1.7-9.7h3.4l4.7,9.7h6.8l-4.8-9.7h4.9l1.7-9.4L267.6,0H248z M263.1,8.9h-8.5l0.9-5.3h8.5
	L263.1,8.9z M340.2,3.2L337,0h-19.6l1.3,1.8L315,22.3h6.8l1.7-9.7h3.4l4.7,9.7h6.8l-4.8-9.7h4.9L340.2,3.2z M332.5,8.9H324l0.9-5.3
	h8.5L332.5,8.9z M295,0l1.3,1.9l-3.7,20.4h18.8l0.7-3.4h-11.9l1.1-6.3h10.2l0.7-3.5h-10.3l1-5.3h11.9V3.7l0.6-3.7H295z M220.6,0
	l1.3,1.9l-3.1,17.5l2.9,2.9h20l3.3-19L241.8,0H220.6z M235.5,18.7h-9.9l2.6-15.1h9.9L235.5,18.7z M174.1,9l0.9-5.1h7l-0.4,2.3h6.9
	l0.5-2.9L185.8,0h-18.4l1.3,1.9l-2,10.6h16.7l-1.1,6.4h-16.8l-0.6,3.4h23.6l1.8-10L187.1,9H174.1z M194.7,0l1.4,1.8l-3.7,20.6h6.7
	l1.7-9.7H216l1.6-9.3L214.4,0H194.7z M209.9,9h-8.5l0.9-5.4h8.5L209.9,9z"/>
</svg>
