<svg width="30" height="30" viewBox="0 0 30 30" fill="none" xmlns="http://www.w3.org/2000/svg">
<path d="M22.7239 8.95522L19.8134 22.5C19.5896 23.5075 18.9179 23.7313 18.2463 23.1716L13.8806 19.9254L11.8657 21.9403C11.6418 22.1642 11.306 22.5 10.9701 22.5L11.306 18.1343L19.3657 10.8582C19.7015 10.5224 19.3657 10.2985 18.806 10.6343L8.84328 16.903L4.47761 15.3358C3.69403 15 3.69403 14.3284 4.81343 13.9925L21.4925 7.61194C22.1642 7.27612 22.8358 7.83582 22.7239 8.95522ZM15 30C6.71642 30 0 23.2836 0 15C0 6.71642 6.71642 0 15 0C23.2836 0 30 6.71642 30 15C29.8881 23.2836 23.1716 30 15 30ZM15 2.46269C8.0597 2.46269 2.35075 8.0597 2.35075 15.1119C2.35075 22.1642 8.0597 27.6493 15 27.6493C21.9403 27.6493 27.6493 22.0522 27.6493 15C27.6493 7.94776 21.9403 2.46269 15 2.46269Z" fill="#747270"/>
</svg>
