<svg width="30" height="32" viewBox="0 0 30 32" fill="none" xmlns="http://www.w3.org/2000/svg">
<path d="M15.5665 0.0423764C22.6576 0.0651041 25.8167 2.38333 26.6122 3.11062C29.2259 5.36066 30.6577 10.3835 29.7032 18.2927C28.7486 25.9747 22.953 26.7247 21.9303 27.0656C21.4757 27.202 17.5893 28.1793 12.4983 27.7475L10.6801 29.8384C9.68005 30.8839 9.08913 31.8839 8.04366 31.543C7.22546 31.3157 7.24819 30.043 7.24819 29.9975V26.8156C-0.18378 24.7247 -0.0701415 17.0654 0.0207694 12.9745C0.0889526 8.86073 0.884423 5.54249 3.1572 3.29244C7.27091 -0.457634 15.5665 0.0196487 15.5665 0.0196487V0.0423764ZM4.90723 4.92884C2.9981 6.81524 2.36173 9.61075 2.29354 13.0426C2.22536 16.4518 1.83899 22.8837 7.93002 24.702L8.13457 24.7474V24.7929L8.08911 30.043C8.08911 30.3384 8.13457 30.543 8.31639 30.5884C8.43003 30.6112 8.63458 30.5657 8.77094 30.4066C9.79369 29.3839 12.9983 25.5202 12.9983 25.5202C17.3166 25.8156 20.7257 24.952 21.1121 24.8383C21.9758 24.5656 26.6804 24.1565 27.4759 17.7245C28.2941 11.1335 27.1577 6.58796 24.9758 4.70156C24.294 4.11064 21.4303 2.29242 15.4302 2.26969C15.4302 2.26969 8.36185 1.81514 4.90723 4.92884ZM10.2255 6.97433L11.3165 8.338C11.6346 8.79255 12.0437 9.45165 12.2483 9.8153C12.6347 10.4971 12.4074 11.179 12.021 11.4744L11.2937 12.0426C10.9074 12.3608 10.9528 12.9063 10.9528 12.9063C10.9528 12.9063 12.0665 17.0654 16.1802 18.1336C16.1802 18.1336 16.7484 18.1564 17.0438 17.7927L17.6348 17.0427C17.9075 16.6791 18.5893 16.4518 19.2712 16.8154C20.2836 17.4015 21.2352 18.0867 22.1121 18.8609C22.5439 19.2246 22.6349 19.77 22.3394 20.3155C22.0143 20.8854 21.6 21.3996 21.1121 21.8383C20.7642 22.1603 20.3297 22.3736 19.8621 22.4519H19.6803C19.4984 22.4519 19.3166 22.4519 19.1348 22.3837C17.941 21.9683 16.7914 21.4354 15.7029 20.7928C14.183 19.9537 12.7775 18.9225 11.521 17.7245L11.4301 17.6564V17.6336L11.3392 17.5655C10.1511 16.306 9.12776 14.9008 8.29366 13.3836C7.64602 12.3057 7.11281 11.1631 6.70272 9.97439V9.95166C6.61892 9.72686 6.58782 9.48582 6.61181 9.24711C6.65727 8.83801 6.86182 8.40618 7.22546 7.99708C7.68001 7.47434 8.20275 7.06524 8.74822 6.74706C9.31641 6.4516 9.8846 6.56523 10.2255 6.97433ZM14.7711 5.51976C17.1347 5.51976 19.1575 6.33796 20.7485 7.88344C22.3394 9.47438 23.1803 11.5881 23.2031 14.2699C23.2031 14.4206 23.1432 14.5651 23.0366 14.6717C22.9301 14.7783 22.7856 14.8381 22.6349 14.8381C22.4842 14.8381 22.3396 14.7783 22.2331 14.6717C22.1265 14.5651 22.0667 14.4206 22.0667 14.2699C22.0667 11.8835 21.3848 10.0426 19.9757 8.67891C18.5893 7.31525 16.862 6.63342 14.7711 6.63342C14.6234 6.63342 14.4818 6.57475 14.3773 6.47033C14.2729 6.3659 14.2142 6.22427 14.2142 6.07659C14.2142 5.92891 14.2729 5.78728 14.3773 5.68285C14.4818 5.57842 14.6234 5.51976 14.7711 5.51976ZM15.4756 7.61071H15.5211C17.0784 7.65085 18.5568 8.30431 19.6348 9.42893C20.1333 9.97321 20.5185 10.6111 20.7683 11.3057C21.018 12.0002 21.1271 12.7374 21.0894 13.4745C21.0864 13.6221 21.0248 13.7626 20.9182 13.8649C20.8117 13.9672 20.6689 14.0229 20.5212 14.0199C20.3735 14.0169 20.2331 13.9554 20.1308 13.8488C20.0285 13.7422 19.9727 13.5994 19.9757 13.4517C20.0212 12.1108 19.6348 11.0426 18.8393 10.1789C18.0211 9.29256 16.9075 8.81528 15.4302 8.70164C15.2855 8.70164 15.1468 8.64417 15.0445 8.54188C14.9422 8.43958 14.8847 8.30084 14.8847 8.15617C14.8847 8.01151 14.9422 7.87277 15.0445 7.77047C15.1468 7.66818 15.2855 7.61071 15.4302 7.61071H15.4756ZM16.0893 9.74712H16.112C17.9302 9.83803 18.953 10.8835 19.0439 12.7472C19.0499 12.8949 18.997 13.0389 18.8969 13.1476C18.7967 13.2563 18.6575 13.3207 18.5098 13.3267C18.3621 13.3328 18.2181 13.2799 18.1094 13.1797C18.0007 13.0795 17.9362 12.9403 17.9302 12.7926C17.862 11.4972 17.2938 10.9062 16.0665 10.838C15.9219 10.838 15.7831 10.7806 15.6808 10.6783C15.5785 10.576 15.5211 10.4372 15.5211 10.2926C15.5211 10.1479 15.5785 10.0092 15.6808 9.90688C15.7831 9.80458 15.9219 9.74712 16.0665 9.74712H16.0893Z" fill="#747270"/>
</svg>
