<svg width="30" height="31" viewBox="0 0 30 31" fill="none" xmlns="http://www.w3.org/2000/svg">
<path fill-rule="evenodd" clip-rule="evenodd" d="M25.6289 4.38107C24.2451 2.9882 22.5987 1.88376 20.7851 1.13174C18.9714 0.379717 17.0266 -0.00494214 15.0632 4.79352e-05C6.83027 4.79352e-05 0.12812 6.70053 0.124792 14.9368C0.124792 17.5691 0.811978 20.1381 2.11813 22.4043L0 30.1431L7.91845 28.0649C10.1088 29.2572 12.5627 29.8824 15.0565 29.8835H15.0632C23.2945 29.8835 29.9966 23.183 29.9999 14.9468C30.0056 12.9842 29.6222 11.0399 28.872 9.22642C28.1217 7.41289 27.0194 5.76605 25.6289 4.38107ZM15.0632 27.3627H15.0582C12.8344 27.363 10.6516 26.7647 8.73875 25.6306L8.28617 25.3611L3.58735 26.594L4.84026 22.0133L4.54575 21.5441C3.30247 19.5648 2.64431 17.2742 2.64725 14.9368C2.65058 8.09155 8.21962 2.52251 15.0682 2.52251C16.6992 2.51888 18.3148 2.83878 19.8213 3.46369C21.3279 4.08859 22.6956 5.0061 23.8452 6.1631C25.001 7.31458 25.9171 8.68372 26.5405 10.1914C27.164 11.699 27.4824 13.3153 27.4775 14.9468C27.4742 21.792 21.9051 27.3627 15.0632 27.3627ZM21.8735 18.0632C21.4991 17.8752 19.6655 16.9734 19.3228 16.8486C18.9817 16.7238 18.7337 16.6622 18.4842 17.035C18.2346 17.4077 17.5191 18.2479 17.3011 18.4975C17.0832 18.7471 16.8652 18.777 16.4925 18.5907C16.1198 18.4043 14.9168 18.01 13.4908 16.7388C12.381 15.7488 11.6323 14.5275 11.4143 14.1531C11.1963 13.7787 11.391 13.5774 11.579 13.391C11.7471 13.2246 11.9517 12.9551 12.1381 12.7371C12.3244 12.5192 12.386 12.3644 12.5108 12.1148C12.6356 11.8652 12.574 11.6473 12.4792 11.4609C12.386 11.2729 11.6389 9.43597 11.3278 8.68888C11.0266 7.96509 10.7188 8.0616 10.4892 8.05161C10.2514 8.04189 10.0134 8.03745 9.77535 8.0383C9.5861 8.04312 9.39988 8.087 9.22837 8.16717C9.05686 8.24734 8.90377 8.36208 8.77868 8.50419C8.43592 8.87857 7.47253 9.78039 7.47253 11.6173C7.47253 13.4543 8.8103 15.2296 8.99665 15.4792C9.18301 15.7288 11.6289 19.4975 15.3727 21.1148C16.2645 21.4992 16.96 21.7288 17.5008 21.9018C18.3943 22.1864 19.2079 22.1448 19.8519 22.0499C20.569 21.9434 22.0599 21.1481 22.371 20.2762C22.6821 19.4043 22.6821 18.6572 22.589 18.5008C22.4958 18.3444 22.2445 18.2496 21.8735 18.0632Z" fill="#747270"/>
</svg>
